/* XPM */ 
static const char * xpm_sj_16[] = {
"16 16 69 1",
" 	c None",
"!	c black",
"#	c #A9AD97",
"$	c #D5DABE",
"%	c #D0D6B9",
"&	c #ACB290",
"'	c #8D946D",
"(	c #7C845A",
")	c #7C8359",
"*	c #8A9169",
"+	c #A1A787",
",	c #B4B998",
"-	c #6C7448",
".	c #636B3D",
"0	c #798056",
"1	c #AFB593",
"2	c #B6BC9B",
"3	c #9AA17B",
"4	c #646C3E",
"5	c #C8CEB0",
"6	c #676F42",
"7	c #B1B796",
"8	c #747B50",
"9	c #A8AF8C",
":	c #7B8258",
";	c #CDD2B5",
"<	c #BCC2A2",
"=	c #676F41",
">	c #A5AC88",
"?	c #70784C",
"@	c #B9BF9E",
"A	c #C7CCAE",
"B	c #646C3F",
"C	c #A9AF8C",
"D	c #B7BD9C",
"E	c #636B3E",
"F	c #A1A788",
"G	c #C9CEB0",
"H	c #C8CDAF",
"I	c #BFC5A5",
"J	c #71794D",
"K	c #6E764C",
"L	c #9CA37E",
"M	c #B3B998",
"N	c #CAD0B2",
"O	c #767E53",
"P	c #868D65",
"Q	c #D4D9BD",
"R	c #BDC3A3",
"S	c #6A7146",
"T	c #C1C7A8",
"U	c #A6AC89",
"V	c #CACFB1",
"W	c #868D69",
"X	c #D3D8BC",
"Y	c #71784D",
"Z	c #A0A682",
"[	c #777E53",
"]	c #6D7448",
"^	c #8F956E",
"_	c #B8BE9E",
"`	c #919871",
"a	c #909770",
"b	c #CED3B6",
"c	c #CDD3B5",
"d	c #A0A783",
"e	c #80875E",
"f	c #6F774B",
"g	c #828960",
" ############## ",
"#$$$$$$$$%&'()*+",
"#$$$$$$$,-.01234",
"#$$$$$$56..7$$$8",
"#$$$$$$9...:;$<=",
"#$$$$$$>....?@$#",
"#$$$$$$A6....BC#",
"#$$$$$$$D6....EF",
"#$$$GH$$$IJ....K",
"#$$LEEM$$$NO....",
"#$GE.PQ$$$$R...S",
"#$T..U$$$$$V...W",
"#$XY.'$$$$$Z..[#",
"#$$<].^@I_`4Bab#",
"#$$$cde]6fgZH$$#",
" ############## "};