/* XPM */
static const char *xpm_movehand_32[] = {
"32 32 16 2",
"00 c black",
"01 c #800000",
"02 c #008000",
"03 c #808000",
"04 c #000080",
"05 c #800080",
"06 c #008080",
"07 c #C0C0C0",
"08 c #808080",
"09 c red",
"10 c None",
"11 c yellow",
"12 c blue",
"13 c magenta",
"14 c cyan",
"15 c gray100",
"1010101010101010000010101010101010101010101010101010101010101010",
"1010101010000000151500101010101010101010101010101010101010101010",
"1010101000151500151500000010101010101010101010101010101010101010",
"1010101000151500151500151500101010101010101010101010101010101010",
"1010101000151500151500151500101010101010101010101010101010101010",
"1010101000151500151500151500000010101010101010101010101010101010",
"1010101000151500151500151500151500101010101010101010101010101010",
"1010101000151500151500151500151500101010101010101010101010101010",
"1010101000151500151500151500151500101010101010101010101010101010",
"0000001000151500151500151500151500101010101010101010101010101010",
"0015150000151515151515151500151500101010101010101010101010101010",
"0015151500151515151515151515151500101010101010101010101010101010",
"1000151500151515151515151515151500101010101010101010101010101010",
"1010001500151515151515151515151500101010101010101010101010101010",
"1010001515151515151515151515151500101010101010101010101010101010",
"1010100015151515151515151515151500101010101010101010101010101010",
"1010100015151515151515151515150010101010101010101010101010101010",
"1010101000151515151515151515150010101010101010101010101010101010",
"1010101000151515151515151515150010101010101010101010101010101010",
"1010101010001515151515151515001010101010101010101010101010101010",
"1010101010001515151515151515001010101010101010101010101010101010",
"1010101010000000000000000000001010101010101010101010101010101010",
"1010101010101010101010101010101010101010101010101010101010101010",
"1010101010101010101010101010101010101010101010101010101010101010",
"1010101010101010101010101010101010101010101010101010101010101010",
"1010101010101010101010101010101010101010101010101010101010101010",
"1010101010101010101010101010101010101010101010101010101010101010",
"1010101010101010101010101010101010101010101010101010101010101010",
"1010101010101010101010101010101010101010101010101010101010101010",
"1010101010101010101010101010101010101010101010101010101010101010",
"1010101010101010101010101010101010101010101010101010101010101010",
"1010101010101010101010101010101010101010101010101010101010101010"
};
