/* XPM */
static char *xpm_movehand_16[] = {
"16 16 16 2",
"00 c black",
"01 c #800000",
"02 c #008000",
"03 c #808000",
"04 c #000080",
"05 c #800080",
"06 c #008080",
"07 c #C0C0C0",
"08 c #808080",
"09 c red",
"10 c None",
"11 c yellow",
"12 c blue",
"13 c magenta",
"14 c cyan",
"15 c gray100",
"10101010101000001010101010101010",
"10101010000015001010101010101010",
"10101000150015000000101010101010",
"10101000150015001500101010101010",
"10101000150015001500001010101010",
"10101000150015001500150010101010",
"00001000150015001500150010101010",
"00150000151515151500150010101010",
"00151500151515151515150010101010",
"10001500151515151515150010101010",
"10001515151515151515150010101010",
"10100015151515151515150010101010",
"10100015151515151515150010101010",
"10101000151515151515001010101010",
"10101000151515151515001010101010",
"10101000000000000000001010101010"
};
