/* XPM */ 
static const char * xpm_sj_32[] = {
"32 32 37 1",
" 	c None",
"!	c black",
"#	c #ADAD94",
"$	c #D5DABE",
"%	c #B0B49D",
"&	c #C4CAAB",
"'	c #ADB391",
"(	c #9CA27D",
")	c #949B75",
"*	c #8D946D",
"+	c #A6AC89",
",	c #BDC3A3",
"-	c #737A4F",
".	c #636B3D",
"0	c #6D7549",
"1	c #8E9473",
"2	c #CECEB5",
"3	c #7D855B",
"4	c #7A8157",
"5	c #666E41",
"6	c #B8BE9D",
"7	c #6B7347",
"8	c #D6D6BD",
"9	c #747C51",
":	c #A8AE8B",
";	c #838A61",
"<	c #848B63",
"=	c #A4AB87",
">	c #B6BC9B",
"?	c #787F55",
"@	c #CDD3B5",
"A	c #868C6A",
"B	c #ACB28F",
"C	c #919778",
"D	c #B3B997",
"E	c #9AA07B",
"F	c #C8CDAF",
" ############################## ",
"#$$$$$$$$$$$$$$$$$$$$$$$$$$$$$$%",
"#$$$$$$$$$$$$$$$$$$$$$&'()*(+,$#",
"#$$$$$$$$$$$$$$$$$$&)-........01",
"#$$$$$$$$$$$$$$$$2*.....3)()4...",
"#$$$$$$$$$$$$$$$&0....56$$$$$67.",
"#$$$$$$$$$$$$$$89.....*$$$$$$$*.",
"#$$$$$$$$$$$$$$:......*$$$$$$$;.",
"#$$$$$$$$$$$$$$<......56$$$$$=..",
"#$$$$$$$$$$$$$$-.......7>$$$$=05",
"#$$$$$$$$$$$$$$-.........)$$$$$#",
"#$$$$$$$$$$$$$$3..........?&$$$#",
"#$$$$$$$$$$$$$$=...........76$$#",
"#$$$$$$$$$$$$$$89...........5'$#",
"#$$$$$$$$$$$$$$$29...........56#",
"#$$$$$$$$$$$$$$$$29...........7#",
"#$$$$$$$$$$$$$$$$$@<...........A",
"#$$$$$$$@''2$$$$$$$$(..........0",
"#$$$$$$(5..5B$$$$$$$$B..........",
"#$$$$$(.....4$$$$$$$$$'.........",
"#$$$$@5....<$$$$$$$$$$$).......7",
"#$$$$'.....@$$$$$$$$$$$,.......3",
"#$$$$B....9$$$$$$$$$$$$&.......C",
"#$$$$D....4$$$$$$$$$$$$6......9#",
"#$$$$@5...58$$$$$$$$$$$*......,#",
"#$$$$$E....($$$$$$$$$$6......'$#",
"#$$$$$83....(8$$$$$$$=7....-,$$#",
"#$$$$$$@*....0):BB:)0....7(8$$$#",
"#$$$$$$$$6<............3+8$$$$$#",
"#$$$$$$$$$$FB)3-7-9<)'2$$$$$$$$#",
"#$$$$$$$$$$$$$$$$$$$$$$$$$$$$$$%",
" ############################## "};